<?xml version="1.0" encoding="UTF-8"?>
<svg id="Capa_2" data-name="Capa 2" xmlns="http://www.w3.org/2000/svg" viewBox="0 0 371.02 73.24">
  <defs>
    <style>
      .cls-1 {
        fill: #67c5e0;
      }

      .cls-2 {
        fill: #1d3f81;
      }

      .cls-3 {
        fill: #faf9fb;
      }

      .cls-4 {
        fill: #3aa1da;
      }
    </style>
  </defs>
  <g id="Capa_1-2" data-name="Capa 1">
    <g>
      <path class="cls-3" d="M159.12,0v73.24h-11.98l-43.91-53.71h-.8v53.71h-13.03V0h12.06l43.95,53.79h.8V0h12.91Z"/>
      <path class="cls-3" d="M199.65,73.24h-27.49V0h28.37c8.32,0,15.47,1.46,21.44,4.38,5.97,2.92,10.55,7.11,13.75,12.55,3.19,5.45,4.79,11.97,4.79,19.58s-1.61,14.19-4.83,19.67c-3.22,5.48-7.87,9.7-13.95,12.64-6.08,2.95-13.44,4.42-22.06,4.42ZM184.97,63.59h13.98c6.47,0,11.85-1.06,16.13-3.17,4.28-2.11,7.49-5.17,9.62-9.19,2.13-4.02,3.19-8.92,3.19-14.72s-1.06-10.62-3.17-14.63c-2.12-4.01-5.26-7.05-9.43-9.12-4.17-2.07-9.36-3.11-15.55-3.11h-14.76v53.93Z"/>
      <path class="cls-3" d="M255.68,73.24h-14.32L273.53,0h15.58l32.18,73.24h-14.32l-25.28-59.94h-.7l-25.32,59.94ZM258.08,44.56h46.45v9.3h-46.45v-9.3Z"/>
      <g>
        <path class="cls-4" d="M74.97,26.46c-2.94,4.54-6.66,6.69-11.61,8.8-.33-5.33-1.46-10.4-4.77-14.64-3.54-4.54-7.8-7.9-13.2-9.39-10.56-2.91-22.9.2-27.94,9.84l-2.77,5.31c-4.99.99-9.51,2.87-14.32,5.64.34-3.73,1.36-7.11,2.92-10.44C9.28,8.78,22.04.79,36.07.06c17.39-.92,33.69,9.63,38.9,26.41Z"/>
        <path class="cls-2" d="M75.88,41.22c-.27,5.11-2.18,9.68-4.75,13.92-9.11,15.01-27.7,21.21-44.27,16.36-8.46-2.54-15.6-7.52-20.96-15.14,3.89-1.8,7.78-2.96,11.74-4.19,4.65,7.52,12.59,11.59,21.3,11.23,9.47-.23,17.82-5.61,21.66-14.28,5.66-1.43,10.61-4.05,15.28-7.91Z"/>
        <path class="cls-3" d="M76.32,38.28c-4.79,4.75-10.73,7.94-17.44,9.11-13.04,2.26-20.12-5.96-33.15-8.59-3.09-.62-6.23-1.02-9.23-.5.07-.3.35-.36.71-.47,7.14-2.09,14.33-2.48,21.69-1.47,3.32.46,6.41,1.1,9.55,1.33,9.78,2.68,20.56-.61,26.93-8.85.71,2.93,1.1,6.04.93,9.43Z"/>
        <path class="cls-1" d="M48.46,37.69c-3.15-.23-6.23-.88-9.55-1.33-7.36-1.01-14.55-.62-21.69,1.47-.36.11-.65.17-.71.47-5.52.97-10.61,3.24-15.46,6.76-.96-3.52-1.23-6.99-.93-10.58,8.05-5.12,17.56-8.69,27.07-6.18,3.35.89,6.4,2.14,9.46,3.75,3.97,2.1,7.86,3.96,11.82,5.65Z"/>
        <path class="cls-2" d="M47.88,49.22c-9.9-.58-16.37-1.76-26.28.25-5.78,1.17-11.05,3.25-16.38,5.67-1.71-2.61-2.86-5.28-3.72-8.25,12.49-9.23,22.11-8.25,35.57-2.18,3.64,1.64,7.08,3.24,10.81,4.51Z"/>
      </g>
      <path class="cls-3" d="M362.15,38.43c-.29-2.13-1.49-3.78-3.59-4.96-2.1-1.18-4.75-1.76-7.94-1.76-2.28,0-4.26.3-5.93.89-1.67.59-2.96,1.4-3.88,2.43-.92,1.03-1.37,2.19-1.37,3.49,0,1.09.31,2.04.94,2.83.63.79,1.45,1.46,2.48,1.99,1.02.53,2.13.97,3.3,1.33,1.18.35,2.31.64,3.4.86l5.44,1.17c1.78.36,3.6.85,5.47,1.46,1.87.61,3.6,1.42,5.19,2.43,1.6,1,2.89,2.25,3.88,3.73.99,1.48,1.48,3.26,1.48,5.33,0,2.61-.81,4.92-2.43,6.94-1.62,2.02-3.97,3.62-7.04,4.79s-6.79,1.75-11.14,1.75-7.78-.55-10.82-1.64-5.43-2.65-7.15-4.66c-1.72-2.01-2.67-4.41-2.86-7.18h8.43c.16,1.66.82,3.05,1.97,4.15,1.15,1.1,2.63,1.92,4.43,2.45,1.8.53,3.78.8,5.94.8,2.37,0,4.49-.31,6.35-.93s3.32-1.49,4.39-2.61c1.07-1.12,1.6-2.42,1.6-3.92,0-1.36-.47-2.48-1.4-3.35-.93-.87-2.19-1.59-3.78-2.16-1.59-.57-3.38-1.07-5.37-1.51l-6.58-1.48c-4.46-1-7.99-2.48-10.59-4.43-2.6-1.95-3.9-4.53-3.9-7.73,0-2.65.87-4.97,2.61-6.95,1.74-1.98,4.1-3.52,7.07-4.62,2.97-1.1,6.33-1.65,10.06-1.65s7.1.55,9.99,1.64c2.89,1.09,5.17,2.6,6.84,4.51,1.67,1.91,2.54,4.1,2.61,6.57h-8.1Z"/>
    </g>
  </g>
</svg>

